<?xml version="1.0" standalone="no"?>
<!DOCTYPE svg PUBLIC "-//W3C//DTD SVG 20010904//EN"
 "http://www.w3.org/TR/2001/REC-SVG-20010904/DTD/svg10.dtd">
<svg version="1.0" xmlns="http://www.w3.org/2000/svg"
 width="607.000000pt" height="312.000000pt" viewBox="0 0 607.000000 312.000000"
 preserveAspectRatio="xMidYMid meet">

<g transform="translate(0.000000,312.000000) scale(0.100000,-0.100000)"
fill="#000000" stroke="none">
<path d="M4185 3080 c-16 -4 -64 -17 -105 -28 -66 -17 -75 -23 -82 -47 -10
-37 -23 -45 -81 -45 -56 0 -180 -26 -219 -46 -15 -8 -44 -28 -63 -45 -28 -25
-35 -38 -35 -68 0 -38 25 -68 148 -174 58 -51 70 -49 64 12 l-4 48 43 21 c42
20 129 40 129 30 0 -3 -9 -95 -20 -204 -59 -600 -86 -1139 -60 -1199 5 -11 9
-16 9 -11 1 5 12 -3 26 -18 13 -14 29 -26 34 -26 14 0 15 7 47 280 15 129 30
240 33 247 4 8 25 3 71 -16 57 -25 286 -101 892 -297 170 -55 254 -72 171 -34
-28 12 -47 29 -55 49 -9 20 -39 47 -91 80 -43 28 -82 51 -87 51 -13 0 -195 78
-359 154 -75 35 -175 75 -223 90 -49 15 -88 30 -88 34 1 4 37 29 81 55 236
143 455 354 543 525 12 23 15 44 11 65 -13 58 -69 151 -135 220 -56 61 -80 77
-188 129 -100 49 -140 63 -208 73 -89 13 -114 27 -140 77 -8 16 -18 28 -22 27
-4 -1 -20 -5 -37 -9z m380 -321 c28 -5 87 -28 133 -50 94 -46 98 -53 58 -141
-33 -76 -95 -149 -189 -225 -45 -36 -127 -101 -182 -145 -118 -94 -159 -117
-226 -125 -59 -7 -59 -10 -23 130 14 56 47 203 73 327 l47 225 85 11 c86 12
135 10 224 -7z"/>
<path d="M1369 3026 c-2 -2 -146 -13 -319 -25 -367 -26 -914 -93 -976 -121
-55 -24 -60 -34 -39 -81 16 -34 16 -45 6 -80 -25 -83 23 -95 258 -61 94 13
174 22 177 19 3 -2 -18 -110 -46 -238 -82 -376 -90 -429 -99 -634 -7 -187 -7
-191 17 -245 13 -30 24 -66 24 -79 0 -14 11 -47 24 -75 13 -28 24 -59 24 -69
0 -12 6 -17 17 -15 22 4 43 77 78 273 14 77 68 349 120 605 52 256 95 474 95
485 0 11 4 26 8 33 12 18 267 80 382 93 52 6 114 18 138 26 54 19 112 75 112
108 0 15 10 31 25 41 32 21 32 44 2 44 -13 0 -26 -2 -28 -4z"/>
<path d="M2700 2819 c-58 -4 -183 -7 -278 -8 -101 0 -182 -5 -193 -12 -11 -5
-51 -13 -89 -16 -39 -3 -74 -11 -79 -17 -16 -20 -43 -169 -46 -256 -2 -47 -10
-114 -19 -150 -9 -36 -16 -101 -16 -145 0 -44 -5 -120 -9 -170 -71 -704 -101
-1093 -89 -1126 7 -19 9 -18 36 13 47 53 116 229 167 423 26 99 71 266 101
370 30 105 60 235 67 290 l13 100 94 7 c52 4 145 19 205 33 104 25 112 29 135
63 13 21 25 43 26 50 5 29 14 42 29 42 9 0 14 4 11 9 -4 5 -107 9 -232 10
-137 0 -231 4 -237 10 -22 22 47 196 98 247 20 20 34 24 87 24 62 0 90 5 296
53 87 20 107 28 127 53 13 16 24 39 25 51 0 12 10 29 21 37 21 14 21 15 -12
21 -19 3 -56 4 -84 3 -27 -2 -97 -6 -155 -9z"/>
<path d="M5623 2777 l-61 -10 -22 -96 c-12 -53 -29 -109 -38 -126 -8 -16 -17
-52 -21 -80 l-6 -50 -74 -10 c-44 -6 -76 -15 -79 -23 -2 -8 23 -25 68 -45 69
-31 71 -33 65 -62 -3 -16 -10 -88 -15 -160 -5 -71 -17 -179 -26 -240 -21 -130
-23 -559 -3 -607 23 -57 24 -55 83 247 19 94 41 226 50 295 10 75 26 146 40
180 13 30 29 91 35 135 7 44 19 106 28 137 14 51 19 58 47 63 186 38 332 86
365 121 4 4 -73 5 -169 3 l-175 -4 1 50 c1 28 18 98 38 160 35 102 36 110 20
122 -20 15 -61 15 -151 0z"/>
<path d="M3460 2539 c-52 -10 -64 -23 -85 -94 l-15 -52 -85 -11 c-110 -14
-126 -23 -118 -62 4 -22 0 -36 -12 -51 -29 -31 -7 -42 90 -43 l87 -1 -5 -35
c-49 -318 -48 -310 -36 -407 6 -52 9 -111 6 -132 -3 -22 -1 -43 5 -49 5 -5 12
-35 15 -66 3 -31 9 -53 13 -49 4 4 20 62 35 128 52 229 116 480 142 557 l26
77 68 16 c37 8 84 15 104 15 46 0 111 33 152 77 19 21 37 32 44 27 8 -4 9 -3
5 4 -5 8 -56 12 -162 12 l-154 0 6 54 c6 46 4 56 -15 75 -22 22 -40 24 -111
10z"/>
<path d="M820 2427 c-30 -109 -57 -289 -70 -466 -6 -80 -15 -180 -20 -221 -10
-88 -1 -111 56 -135 47 -19 54 -19 54 3 0 34 203 352 217 339 1 -2 -1 -37 -7
-78 -12 -97 -12 -223 0 -290 13 -70 74 -199 94 -199 25 0 29 18 31 159 3 190
37 369 101 535 l19 48 -33 27 c-18 15 -49 33 -69 39 -35 11 -36 10 -87 -41
-28 -29 -88 -102 -133 -161 -46 -60 -83 -102 -83 -95 0 21 57 359 81 483 25
128 25 129 -73 132 l-56 3 -22 -82z"/>
<path d="M4993 2393 c-54 -3 -66 -8 -94 -36 -39 -38 -113 -189 -134 -272 -18
-70 -18 -127 -2 -214 10 -57 16 -67 44 -83 19 -11 54 -20 87 -21 54 -2 57 -1
105 47 27 27 64 75 81 108 17 32 35 58 41 58 5 0 9 -30 9 -67 1 -147 25 -353
45 -380 16 -22 24 -15 31 23 2 16 7 35 9 42 3 7 11 55 20 108 8 52 27 143 41
202 31 134 61 281 70 349 6 49 5 53 -18 62 -14 5 -45 12 -70 16 -42 6 -46 5
-76 -29 -21 -24 -33 -50 -37 -83 -9 -63 -97 -245 -131 -272 -50 -39 -82 5 -71
99 12 98 129 268 208 300 16 7 29 16 29 20 0 12 -60 30 -94 28 -17 -1 -59 -3
-93 -5z"/>
<path d="M1730 2261 c-8 -5 -38 -11 -66 -14 -97 -11 -166 -37 -204 -76 -111
-116 -184 -389 -132 -490 35 -69 125 -88 243 -52 108 34 200 112 224 191 6 21
2 19 -29 -15 -24 -26 -39 -36 -42 -27 -4 9 -13 7 -34 -8 -35 -25 -104 -50
-136 -50 -39 0 -58 41 -48 103 l9 52 57 7 c94 12 202 75 253 147 59 87 63 177
8 221 -26 20 -76 26 -103 11z m-29 -91 c10 -6 19 -19 19 -29 0 -41 -35 -114
-76 -160 -41 -46 -98 -81 -111 -68 -15 15 115 267 138 267 6 0 19 -5 30 -10z"/>
<path d="M2849 2210 c-33 -18 -76 -60 -107 -106 -7 -10 -5 -3 4 16 9 19 27 50
41 68 38 51 0 41 -53 -13 -53 -55 -96 -138 -124 -237 -23 -82 -25 -144 -7
-237 16 -83 39 -102 126 -104 l63 -2 54 58 c30 32 67 84 83 115 31 60 32 60
51 -18 28 -108 124 -235 173 -228 29 4 34 34 7 41 -18 5 -20 13 -20 99 0 51 7
156 15 233 18 165 19 271 4 280 -18 12 -77 10 -101 -3 -35 -19 -70 -77 -75
-125 -7 -59 -100 -245 -136 -271 l-29 -21 -19 24 c-67 82 51 328 193 402 l33
18 -37 15 c-49 21 -95 20 -139 -4z"/>
<path d="M2661 1192 c-29 -57 -45 -154 -34 -201 9 -35 7 -44 -23 -97 -51 -88
-74 -172 -74 -268 0 -189 85 -351 236 -451 47 -31 150 -75 176 -75 23 0 -49
82 -86 99 -55 24 -143 101 -183 159 -77 113 -99 280 -54 411 12 35 29 74 37
87 l16 23 49 -34 c27 -18 65 -39 84 -45 19 -6 35 -14 35 -16 0 -3 -9 -22 -19
-42 -22 -43 -93 -112 -140 -136 l-31 -17 117 -172 c64 -95 155 -228 202 -296
l85 -125 20 29 c44 59 53 66 111 80 87 22 152 57 219 117 183 163 231 421 120
640 -13 26 -27 48 -30 48 -3 0 -14 -10 -23 -22 -17 -21 -17 -24 4 -77 51 -125
55 -230 14 -348 -28 -83 -74 -148 -143 -204 -58 -47 -140 -88 -152 -76 -3 3
55 95 130 205 l136 200 -43 26 c-69 40 -162 155 -138 170 4 3 37 20 72 38 108
56 154 152 130 275 -11 56 -46 133 -60 133 -5 0 -36 -30 -70 -66 l-61 -65 -58
22 c-80 30 -216 37 -302 15 -36 -9 -69 -21 -73 -25 -5 -5 -2 -20 7 -34 17 -24
17 -25 64 -10 65 20 185 20 254 0 31 -10 59 -21 62 -26 3 -5 -4 -30 -15 -56
-12 -26 -24 -68 -28 -94 -6 -44 -8 -46 -46 -53 -51 -9 -149 -9 -200 0 -39 7
-40 8 -47 60 -9 64 -51 149 -109 223 -99 125 -108 129 -138 71z m92 -119 c64
-88 115 -213 87 -213 -19 0 -84 37 -107 62 -39 41 -54 113 -37 176 9 32 18 28
57 -25z m661 25 c10 -41 6 -108 -9 -137 -24 -48 -123 -116 -141 -98 -20 20
105 257 136 257 4 0 10 -10 14 -22z m-189 -376 c10 -25 44 -71 77 -104 l59
-59 -147 -214 c-80 -119 -150 -218 -154 -220 -9 -5 -54 57 -223 308 l-87 127
58 58 c33 33 67 79 77 104 l19 45 151 0 151 0 19 -45z"/>
<path d="M2880 577 c0 -26 7 -61 15 -77 15 -28 81 -77 92 -67 8 9 -51 127 -81
162 l-25 30 -1 -48z"/>
<path d="M3192 577 c-38 -54 -76 -136 -68 -144 10 -10 77 39 92 68 9 18 14 49
12 77 l-3 47 -33 -48z"/>
</g>
</svg>
